# xmcd
#
# Track frame offsets: 
#        150
#        20107
#        40900
#        60739
#        82632
#        104382
#        123782
#        144572
#        166497
#        181775
#        200715
#        224017
#
# Disc length: 3276 seconds
#
# Revision: 1
# Processed by: cddbd v1.5.2PL0 Copyright (c) Steve Scherf et al.
# Submitted via: ExactAudioCopyFreeDBPlugin 1.0
#
DISCID=a80cca0c
DTITLE=柯以敏 - 愛我
DYEAR=1997
DGENRE=Pop
TTITLE0=敏感
TTITLE1=怕你不了解
TTITLE2=愛我(GUESS版)
TTITLE3=寧願告別
TTITLE4=賭吧
TTITLE5=Mr.Cool
TTITLE6=愛在舌尖
TTITLE7=狂風
TTITLE8=Love,Love,Love
TTITLE9=失火
TTITLE10=相信愛
TTITLE11=愛我(YES版)
EXTD=
EXTT0=
EXTT1=
EXTT2=
EXTT3=
EXTT4=
EXTT5=
EXTT6=
EXTT7=
EXTT8=
EXTT9=
EXTT10=
EXTT11=
PLAYORDER=
